<?xml version="1.0" encoding="UTF-8"?>
<svg id="Layer_1" xmlns="http://www.w3.org/2000/svg" version="1.1" viewBox="0 0 1870.5 534.3">
  <!-- Generator: Adobe Illustrator 29.3.1, SVG Export Plug-In . SVG Version: 2.1.0 Build 151)  -->
  <path d="M1600.4,121.3l-127.1,334.4c-6.1,16-13.8,30-23.3,41.7-9.5,11.8-21.2,20.9-35.3,27.3-14.1,6.4-31.1,9.6-51.1,9.6s-20.7-.8-30-2.3-16.8-3.4-22.5-5.8l18.5-60.5,9.9,2.4c10.7,2.9,20.2,3.6,28.6,2.4s15.1-4.6,20.2-10.2c5.1-5.5,8.2-13.3,9.2-23.3l2.1-16-112.3-299.9h42.9c25.3,0,47.7,16.3,55.5,40.3l37.2,114.8c6.1,19.6,11,39.2,14.8,58.9,1.3,6.6,2.7,13.3,4.1,20.1,1.6-6.9,3.3-13.6,4.9-20.3,4.8-19.7,10.4-39.3,16.8-58.7l52.4-155.1h84.3l.2.2h0Z"/>
  <path d="M0,89.5V21.8h325.6v67.7h-121.7v330.9h-81.9V89.5H0Z"/>
  <path d="M531.3,269.3c0-25.7-3.6-48-10.8-66.9s-17.2-34.6-30.1-47.2c-12.8-12.6-27.7-22-44.7-28.2-16.9-6.2-35.2-9.4-54.8-9.4-29.1,0-54.4,6.5-76,19.5-21.6,13-38.2,31.1-50,54.3s-17.7,50.2-17.7,81,5.9,58.9,17.8,81.9c11.9,23,28.9,40.8,51,53.2,22.1,12.5,48.4,18.7,78.9,18.7s44-3.4,61.9-10.2c17.9-6.8,32.9-16.4,44.8-28.8,12-12.4,20.3-26.8,25.1-43.2l-72.8-13.6c-2.9,7.7-7,14.1-12.4,19.4s-12,9.2-19.7,11.9c-7.7,2.7-16.2,4-25.7,4-13.9,0-26.1-3-36.5-8.8-10.4-5.9-18.5-14.7-24.4-26.5-5.2-10.7-8.1-23.6-8.6-38.8h204.6v-22.5h0v.2q0,0,.1,0ZM327.1,241.4c.9-10.1,3.2-19.4,7-27.7,5-11,12.4-19.7,22.1-26.1,9.7-6.4,21.5-9.6,35.4-9.6s25.3,3.2,34.6,9.5c9.4,6.3,16.4,15.2,21.1,26.8,3.3,8.1,5.5,17.1,6.4,27.1h-126.8.2,0Z"/>
  <path d="M830.7,269.3c0-25.7-3.6-48-10.8-66.9s-17.2-34.6-30.1-47.2c-12.8-12.6-27.7-22-44.7-28.2-16.9-6.2-35.2-9.4-54.8-9.4-29.1,0-54.4,6.5-76,19.5-21.6,13-38.3,31.1-50,54.3-11.8,23.2-17.7,50.2-17.7,81s5.9,58.9,17.8,81.9,28.8,40.8,51,53.2,48.4,18.7,78.9,18.7,44-3.4,61.9-10.2c17.9-6.8,32.8-16.4,44.8-28.8,11.9-12.4,20.3-26.8,25.1-43.2l-72.8-13.6c-2.9,7.7-7,14.1-12.4,19.4s-12,9.2-19.7,11.9c-7.7,2.7-16.2,4-25.7,4-13.9,0-26.1-3-36.5-8.8-10.4-5.9-18.5-14.7-24.3-26.5-5.2-10.7-8.1-23.6-8.6-38.8h204.5v-22.5h0v.2q0,0,0,0ZM626.5,241.4c.9-10.1,3.2-19.4,7-27.7,5-11,12.3-19.7,22.1-26.1,9.7-6.4,21.5-9.6,35.4-9.6s25.3,3.2,34.7,9.5,16.4,15.2,21.1,26.8c3.3,8.1,5.5,17.1,6.5,27.1h-126.8Z"/>
  <path d="M1287.4,218.7v201.7h-80.2v-186.5c0-16.9-4.6-29.5-13.8-37.7-9.2-8.2-20.5-12.3-33.8-12.3s-18.7,2.2-26.1,6.6c-7.4,4.4-13.1,10.5-17.1,18.3-4,7.9-6,17-6,27.5v184.1h-77.6v-188.6c0-14.6-4.3-26.3-13-34.9-8.7-8.6-19.8-13-33.6-13s-18,2.1-25.6,6.4c-7.6,4.3-13.5,10.6-17.9,18.9-4.4,8.3-6.5,18.4-6.5,30.4v180.8h-80.2V121.3c20.8,0,39.9,8.2,54,21.5,11,10.4,19,24,22.5,39.4,4.3-12.4,9.8-22.9,16.5-31.5,9-11.6,19.6-20.1,31.7-25.7,12.1-5.5,24.9-8.3,38.3-8.3,21.6,0,39,6.8,52.2,20.5,10.4,10.8,18.7,26.3,24.8,46.4,4.3-11.7,9.9-21.8,16.8-30.3,10.1-12.4,22-21.6,35.8-27.6s28.3-9,43.5-9,34.7,4,49.1,12.1c14.3,8,25.7,19.6,34,34.6,8.3,15.1,12.4,33.5,12.4,55.2h-.2c0,.1,0,.1,0,.1Z"/>
  <path d="M1724.1,426.3c-30,0-55.9-6.5-77.8-19.4s-38.8-30.9-50.7-54c-11.9-23.1-17.8-50-17.8-80.6s5.9-58.1,17.8-81.2c11.9-23.1,28.8-41.1,50.7-54,21.9-12.9,47.9-19.4,77.8-19.4s56.1,6.5,78,19.4c21.8,12.9,38.7,30.9,50.6,54s17.8,50.2,17.8,81.2-5.9,57.6-17.8,80.6c-11.9,23.1-28.7,41.1-50.6,54-21.8,12.9-47.8,19.4-78,19.4ZM1724.1,363.2c14.3,0,26.2-4,35.8-11.9,9.6-7.9,16.8-18.8,21.7-32.6,4.8-13.8,7.2-29.4,7.2-46.7s-2.4-33.4-7.2-47.1c-4.8-13.7-12-24.5-21.7-32.4-9.6-7.8-21.6-11.8-35.8-11.8s-26.2,3.9-35.7,11.8c-9.5,7.9-16.7,18.6-21.5,32.4-4.8,13.7-7.2,29.4-7.2,47.1s2.4,32.9,7.2,46.7c4.8,13.8,12,24.7,21.5,32.6s21.4,11.9,35.7,11.9Z"/>
</svg>